<?xml version="1.0" encoding="utf-8"?>
<!-- Generator: Adobe Illustrator 26.5.0, SVG Export Plug-In . SVG Version: 6.00 Build 0)  -->
<svg version="1.1" id="Layer_1" xmlns="http://www.w3.org/2000/svg" xmlns:xlink="http://www.w3.org/1999/xlink" x="0px" y="0px"
	 width="504px" height="243px" viewBox="0 0 504 243" style="enable-background:new 0 0 504 243;" xml:space="preserve">
<style type="text/css">
	.st0{display:none;fill:#FFFFFF;}
	.st1{fill:url(#SVGID_1_);}
	.st2{fill:url(#SVGID_00000080198286320369751590000003284860293166953611_);}
	.st3{fill:url(#SVGID_00000163067954991124532280000011737572684177107110_);}
	.st4{fill:url(#SVGID_00000018198653501744427870000001392973462392165562_);}
	.st5{fill:url(#SVGID_00000054950599647345520260000001131931884208348040_);}
	.st6{fill:url(#SVGID_00000057120900661537959480000000378719815015819920_);}
	.st7{fill:url(#SVGID_00000000931578882808500300000011037495757389778094_);}
	.st8{fill:url(#SVGID_00000002362950209069212440000010651701989423864460_);}
	.st9{fill:url(#SVGID_00000116223536194462813660000004539866645624317359_);}
	.st10{fill:url(#SVGID_00000115501070804247509880000003109240403783112883_);}
	.st11{fill:url(#SVGID_00000003079060021620193680000016612918106501105027_);}
	.st12{fill:url(#SVGID_00000062158655746608244050000012802072286103499445_);}
	.st13{fill:url(#SVGID_00000034777021028338987270000009807696270802369672_);}
	.st14{fill:url(#SVGID_00000072986061353845932280000014122789640975569311_);}
	.st15{fill:url(#SVGID_00000012456975673475244530000003239595542159355829_);}
	.st16{fill:url(#SVGID_00000151503911450675904250000010210755609447802769_);}
	.st17{fill:url(#SVGID_00000115475043089753609560000003645934192438095031_);}
	.st18{fill:url(#SVGID_00000034056014599904204610000000781455544938015640_);}
	.st19{fill:url(#SVGID_00000079486292498842321890000014453436422244294063_);}
	.st20{fill:url(#SVGID_00000106119323493674261450000005619147380235341955_);}
	.st21{fill:url(#SVGID_00000024692375012037431600000005777793634301571001_);}
	.st22{fill:#3367AF;}
	.st23{fill:#E8C33D;}
	.st24{fill:#6CB56B;}
	.st25{fill:#808FC4;}
</style>
<rect x="-155.8" y="-81" class="st0" width="834.88" height="447.33"/>
<g>
	<g>
		<linearGradient id="SVGID_1_" gradientUnits="userSpaceOnUse" x1="50.0564" y1="229.1405" x2="50.0564" y2="199.1706">
			<stop  offset="0" style="stop-color:#222A5C"/>
			<stop  offset="1" style="stop-color:#3F2544"/>
		</linearGradient>
		<path class="st1" d="M60.05,218.24c-0.23,3.59-1.2,6.23-2.9,7.9c-1.7,1.68-4.05,2.52-7.06,2.52c-3.09,0-5.53-1.17-7.32-3.51
			c-1.79-2.34-2.69-5.52-2.7-9.53v-6.95c0-4.03,0.91-7.19,2.74-9.48c1.82-2.29,4.32-3.43,7.49-3.43c2.99,0,5.31,0.86,6.95,2.57
			c1.64,1.72,2.58,4.35,2.81,7.89H57.5c-0.23-2.9-0.92-4.98-2.06-6.22c-1.14-1.25-2.85-1.87-5.16-1.87c-2.42,0-4.3,0.9-5.65,2.7
			c-1.35,1.8-2.02,4.42-2.02,7.85v6.86c0,3.4,0.65,6.05,1.96,7.94c1.3,1.89,3.14,2.84,5.52,2.84c2.49,0,4.29-0.62,5.41-1.87
			c1.11-1.25,1.78-3.32,2-6.22H60.05z"/>
		
			<linearGradient id="SVGID_00000171687814866380712890000018303380363986111667_" gradientUnits="userSpaceOnUse" x1="72.9215" y1="229.1405" x2="72.9215" y2="199.1706">
			<stop  offset="0" style="stop-color:#222A5C"/>
			<stop  offset="1" style="stop-color:#3F2544"/>
		</linearGradient>
		<path style="fill:url(#SVGID_00000171687814866380712890000018303380363986111667_);" d="M73.64,228.66
			c-2.8,0-4.99-0.92-6.57-2.75c-1.58-1.83-2.39-4.44-2.42-7.83v-2.9c0-3.49,0.76-6.23,2.29-8.21c1.52-1.99,3.62-2.98,6.29-2.98
			c2.58,0,4.55,0.84,5.9,2.53c1.36,1.69,2.05,4.27,2.08,7.74v2.29H67.06v1.34c0,2.73,0.58,4.83,1.75,6.31
			c1.17,1.48,2.81,2.22,4.94,2.22c2.35,0,4.24-0.86,5.69-2.57l1.27,1.63C79.16,227.6,76.8,228.66,73.64,228.66z M73.22,206.28
			c-1.92,0-3.4,0.68-4.43,2.03c-1.03,1.36-1.6,3.34-1.7,5.95h11.67v-0.64C78.64,208.73,76.79,206.28,73.22,206.28z"/>
		
			<linearGradient id="SVGID_00000005252538794733727300000017669701522197396629_" gradientUnits="userSpaceOnUse" x1="93.9833" y1="229.1405" x2="93.9833" y2="199.1706">
			<stop  offset="0" style="stop-color:#222A5C"/>
			<stop  offset="1" style="stop-color:#3F2544"/>
		</linearGradient>
		<path style="fill:url(#SVGID_00000005252538794733727300000017669701522197396629_);" d="M88.72,204.44l0.07,3.78
			c0.7-1.29,1.6-2.32,2.69-3.08c1.09-0.76,2.33-1.14,3.73-1.14c4.15,0,6.27,2.76,6.38,8.29v15.94h-2.42v-15.68
			c-0.01-2.13-0.39-3.69-1.12-4.71c-0.73-1.01-1.88-1.52-3.45-1.52c-1.28,0-2.42,0.48-3.44,1.44c-1.02,0.96-1.79,2.28-2.32,3.95
			v16.51h-2.44v-23.79H88.72z"/>
		
			<linearGradient id="SVGID_00000011713692999383779970000006441701522179800961_" gradientUnits="userSpaceOnUse" x1="110.8571" y1="229.1405" x2="110.8571" y2="199.1706">
			<stop  offset="0" style="stop-color:#222A5C"/>
			<stop  offset="1" style="stop-color:#3F2544"/>
		</linearGradient>
		<path style="fill:url(#SVGID_00000011713692999383779970000006441701522179800961_);" d="M111.74,198.37v6.07h4.07v2.2h-4.07
			v15.81c0,1.31,0.19,2.28,0.58,2.91c0.39,0.64,1.04,0.96,1.95,0.96c0.4,0,0.98-0.07,1.76-0.22l0.07,2.2
			c-0.56,0.25-1.36,0.37-2.4,0.37c-2.86,0-4.32-1.96-4.4-5.89v-16.14h-3.67v-2.2h3.67v-6.07H111.74z"/>
		
			<linearGradient id="SVGID_00000044158673662940183340000003336129922199524481_" gradientUnits="userSpaceOnUse" x1="128.2587" y1="229.1405" x2="128.2587" y2="199.1706">
			<stop  offset="0" style="stop-color:#222A5C"/>
			<stop  offset="1" style="stop-color:#3F2544"/>
		</linearGradient>
		<path style="fill:url(#SVGID_00000044158673662940183340000003336129922199524481_);" d="M128.97,228.66
			c-2.8,0-4.99-0.92-6.57-2.75c-1.58-1.83-2.39-4.44-2.42-7.83v-2.9c0-3.49,0.76-6.23,2.29-8.21c1.52-1.99,3.62-2.98,6.29-2.98
			c2.58,0,4.55,0.84,5.9,2.53c1.36,1.69,2.05,4.27,2.08,7.74v2.29H122.4v1.34c0,2.73,0.58,4.83,1.75,6.31
			c1.17,1.48,2.81,2.22,4.94,2.22c2.35,0,4.24-0.86,5.69-2.57l1.27,1.63C134.5,227.6,132.14,228.66,128.97,228.66z M128.56,206.28
			c-1.92,0-3.4,0.68-4.43,2.03c-1.03,1.36-1.6,3.34-1.7,5.95h11.67v-0.64C133.98,208.73,132.13,206.28,128.56,206.28z"/>
		
			<linearGradient id="SVGID_00000118371955743306652250000003835666259469021844_" gradientUnits="userSpaceOnUse" x1="146.4081" y1="229.1405" x2="146.4081" y2="199.1706">
			<stop  offset="0" style="stop-color:#222A5C"/>
			<stop  offset="1" style="stop-color:#3F2544"/>
		</linearGradient>
		<path style="fill:url(#SVGID_00000118371955743306652250000003835666259469021844_);" d="M151.05,206.72
			c-0.59-0.1-1.1-0.15-1.54-0.15c-1.35,0-2.48,0.46-3.4,1.38c-0.92,0.92-1.57,2.21-1.95,3.85v16.42h-2.44v-23.79h2.4l0.04,3.56
			c1.16-2.67,2.98-4,5.45-4c0.64,0,1.14,0.1,1.47,0.29L151.05,206.72z"/>
		
			<linearGradient id="SVGID_00000056412374112465768640000001285435230056663706_" gradientUnits="userSpaceOnUse" x1="173.2191" y1="229.1405" x2="173.2191" y2="199.1706">
			<stop  offset="0" style="stop-color:#222A5C"/>
			<stop  offset="1" style="stop-color:#3F2544"/>
		</linearGradient>
		<path style="fill:url(#SVGID_00000056412374112465768640000001285435230056663706_);" d="M164.52,215.12
			c0-3.43,0.78-6.14,2.33-8.13c1.55-1.99,3.67-2.99,6.35-2.99c2.7,0,4.82,0.98,6.36,2.95s2.33,4.67,2.34,8.11v2.53
			c0,3.49-0.78,6.21-2.34,8.16c-1.56,1.95-3.67,2.92-6.32,2.92c-2.65,0-4.76-0.95-6.31-2.86c-1.55-1.91-2.36-4.53-2.42-7.87V215.12z
			 M166.99,217.57c0,2.74,0.55,4.89,1.66,6.46c1.11,1.57,2.64,2.35,4.61,2.35c2.01,0,3.54-0.75,4.61-2.26
			c1.06-1.51,1.6-3.67,1.62-6.48v-2.53c0-2.74-0.56-4.89-1.67-6.47c-1.11-1.57-2.65-2.36-4.59-2.36c-1.89,0-3.39,0.77-4.51,2.31
			c-1.11,1.54-1.69,3.65-1.72,6.35V217.57z"/>
		
			<linearGradient id="SVGID_00000067237053524224060290000008300899295257814668_" gradientUnits="userSpaceOnUse" x1="191.7085" y1="229.1405" x2="191.7085" y2="199.1706">
			<stop  offset="0" style="stop-color:#222A5C"/>
			<stop  offset="1" style="stop-color:#3F2544"/>
		</linearGradient>
		<path style="fill:url(#SVGID_00000067237053524224060290000008300899295257814668_);" d="M189.15,228.23v-21.59h-3.28v-2.2h3.28
			v-3.12c0.03-2.36,0.58-4.17,1.64-5.43c1.06-1.26,2.53-1.89,4.41-1.89c0.85,0,1.63,0.12,2.35,0.37l-0.18,2.24
			c-0.64-0.16-1.3-0.24-1.98-0.24c-1.19,0-2.11,0.44-2.78,1.33c-0.67,0.89-1,2.16-1,3.81v2.92h4.66v2.2h-4.66v21.59H189.15z"/>
		
			<linearGradient id="SVGID_00000064346173917534693000000003520086339956619909_" gradientUnits="userSpaceOnUse" x1="220.8944" y1="229.1405" x2="220.8944" y2="199.1706">
			<stop  offset="0" style="stop-color:#222A5C"/>
			<stop  offset="1" style="stop-color:#3F2544"/>
		</linearGradient>
		<path style="fill:url(#SVGID_00000064346173917534693000000003520086339956619909_);" d="M210.5,228.23v-32.01h8.46
			c3.74,0,6.72,1.19,8.94,3.56c2.22,2.37,3.35,5.63,3.4,9.76v5.19c0,4.21-1.11,7.51-3.33,9.9c-2.22,2.4-5.28,3.59-9.18,3.59H210.5z
			 M216.96,201.6v21.26h1.94c2.15,0,3.67-0.57,4.55-1.7c0.88-1.14,1.34-3.1,1.39-5.88v-5.56c0-2.99-0.42-5.07-1.25-6.25
			c-0.84-1.18-2.26-1.8-4.26-1.86H216.96z"/>
		
			<linearGradient id="SVGID_00000094614726560277777760000012918434522335226033_" gradientUnits="userSpaceOnUse" x1="244.0675" y1="229.1405" x2="244.0675" y2="199.1706">
			<stop  offset="0" style="stop-color:#222A5C"/>
			<stop  offset="1" style="stop-color:#3F2544"/>
		</linearGradient>
		<path style="fill:url(#SVGID_00000094614726560277777760000012918434522335226033_);" d="M246.93,228.23
			c-0.18-0.37-0.35-0.98-0.53-1.85c-1.11,1.52-2.62,2.29-4.53,2.29c-1.99,0-3.65-0.66-4.96-1.98c-1.31-1.32-1.97-3.03-1.97-5.12
			c0-2.49,0.79-4.42,2.39-5.78c1.59-1.36,3.88-2.06,6.87-2.09h1.89v-1.91c0-1.07-0.18-1.82-0.55-2.27c-0.37-0.44-0.9-0.66-1.6-0.66
			c-1.55,0-2.33,0.91-2.33,2.73h-6.22c0-2.2,0.83-4.01,2.47-5.44c1.65-1.43,3.73-2.14,6.25-2.14c2.61,0,4.63,0.68,6.06,2.03
			c1.43,1.36,2.14,3.29,2.14,5.82v11.19c0.03,2.05,0.32,3.66,0.88,4.81v0.37H246.93z M243.25,223.78c0.69,0,1.27-0.14,1.76-0.42
			c0.48-0.28,0.84-0.61,1.08-0.99v-4.95h-1.49c-1.06,0-1.89,0.34-2.49,1.01c-0.61,0.67-0.91,1.58-0.91,2.7
			C241.19,222.91,241.88,223.78,243.25,223.78z"/>
		
			<linearGradient id="SVGID_00000155129622873539719350000013478991759664789150_" gradientUnits="userSpaceOnUse" x1="261.2378" y1="229.1405" x2="261.2378" y2="199.1706">
			<stop  offset="0" style="stop-color:#222A5C"/>
			<stop  offset="1" style="stop-color:#3F2544"/>
		</linearGradient>
		<path style="fill:url(#SVGID_00000155129622873539719350000013478991759664789150_);" d="M264.05,198.59v5.85h3.19v4.66h-3.19
			v11.82c0,0.94,0.13,1.59,0.38,1.94c0.26,0.35,0.75,0.53,1.48,0.53c0.6,0,1.09-0.05,1.47-0.15l-0.04,4.84
			c-1.06,0.4-2.2,0.59-3.43,0.59c-4.02,0-6.05-2.3-6.09-6.91V209.1h-2.75v-4.66h2.75v-5.85H264.05z"/>
		
			<linearGradient id="SVGID_00000129902181492980560060000017734761842090681272_" gradientUnits="userSpaceOnUse" x1="279.0899" y1="229.1405" x2="279.0899" y2="199.1706">
			<stop  offset="0" style="stop-color:#222A5C"/>
			<stop  offset="1" style="stop-color:#3F2544"/>
		</linearGradient>
		<path style="fill:url(#SVGID_00000129902181492980560060000017734761842090681272_);" d="M281.95,228.23
			c-0.18-0.37-0.35-0.98-0.53-1.85c-1.11,1.52-2.62,2.29-4.53,2.29c-1.99,0-3.65-0.66-4.96-1.98c-1.31-1.32-1.97-3.03-1.97-5.12
			c0-2.49,0.79-4.42,2.39-5.78c1.59-1.36,3.88-2.06,6.87-2.09h1.89v-1.91c0-1.07-0.18-1.82-0.55-2.27c-0.37-0.44-0.9-0.66-1.6-0.66
			c-1.55,0-2.33,0.91-2.33,2.73h-6.22c0-2.2,0.83-4.01,2.47-5.44c1.65-1.43,3.73-2.14,6.25-2.14c2.61,0,4.63,0.68,6.06,2.03
			c1.43,1.36,2.14,3.29,2.14,5.82v11.19c0.03,2.05,0.32,3.66,0.88,4.81v0.37H281.95z M278.28,223.78c0.69,0,1.27-0.14,1.76-0.42
			c0.48-0.28,0.84-0.61,1.08-0.99v-4.95h-1.49c-1.06,0-1.89,0.34-2.49,1.01c-0.61,0.67-0.91,1.58-0.91,2.7
			C276.21,222.91,276.9,223.78,278.28,223.78z"/>
		
			<linearGradient id="SVGID_00000137110544036545346970000005612935489802091906_" gradientUnits="userSpaceOnUse" x1="312.1347" y1="229.1405" x2="312.1347" y2="199.1706">
			<stop  offset="0" style="stop-color:#222A5C"/>
			<stop  offset="1" style="stop-color:#3F2544"/>
		</linearGradient>
		<path style="fill:url(#SVGID_00000137110544036545346970000005612935489802091906_);" d="M318.66,212.9h-12.42v12.99h14.29v2.33
			h-16.8v-32.01h16.69v2.37h-14.18v11.98h12.42V212.9z"/>
		
			<linearGradient id="SVGID_00000076590155024055814030000001521281756459088819_" gradientUnits="userSpaceOnUse" x1="331.9765" y1="229.1405" x2="331.9765" y2="199.1706">
			<stop  offset="0" style="stop-color:#222A5C"/>
			<stop  offset="1" style="stop-color:#3F2544"/>
		</linearGradient>
		<path style="fill:url(#SVGID_00000076590155024055814030000001521281756459088819_);" d="M331.97,214.04l5.21-9.61h2.88
			l-6.75,11.67l7.01,12.11h-2.86l-5.47-10l-5.5,10h-2.86l6.99-12.11l-6.73-11.67h2.86L331.97,214.04z"/>
		
			<linearGradient id="SVGID_00000071540215966203266070000000756703375621745855_" gradientUnits="userSpaceOnUse" x1="353.0493" y1="229.1405" x2="353.0493" y2="199.1706">
			<stop  offset="0" style="stop-color:#222A5C"/>
			<stop  offset="1" style="stop-color:#3F2544"/>
		</linearGradient>
		<path style="fill:url(#SVGID_00000071540215966203266070000000756703375621745855_);" d="M361.16,217.45
			c0,3.66-0.64,6.45-1.91,8.35c-1.27,1.91-3.18,2.86-5.72,2.86c-2.76,0-4.81-1.1-6.18-3.3v12h-2.42v-32.93h2.24l0.11,3.25
			c1.41-2.46,3.47-3.69,6.18-3.69c2.56,0,4.48,0.91,5.76,2.73c1.28,1.82,1.92,4.59,1.94,8.33V217.45z M358.72,215.22
			c0-3.05-0.47-5.29-1.42-6.72c-0.94-1.43-2.42-2.15-4.43-2.15c-2.58,0-4.42,1.31-5.52,3.93v12.52c1.1,2.39,2.95,3.58,5.56,3.58
			c1.96,0,3.42-0.72,4.36-2.15c0.95-1.43,1.42-3.65,1.44-6.63V215.22z"/>
		
			<linearGradient id="SVGID_00000084497114721377759180000011190631021282624916_" gradientUnits="userSpaceOnUse" x1="373.9689" y1="229.1405" x2="373.9689" y2="199.1706">
			<stop  offset="0" style="stop-color:#222A5C"/>
			<stop  offset="1" style="stop-color:#3F2544"/>
		</linearGradient>
		<path style="fill:url(#SVGID_00000084497114721377759180000011190631021282624916_);" d="M374.68,228.66
			c-2.8,0-4.99-0.92-6.57-2.75c-1.58-1.83-2.39-4.44-2.42-7.83v-2.9c0-3.49,0.76-6.23,2.29-8.21c1.52-1.99,3.62-2.98,6.29-2.98
			c2.58,0,4.55,0.84,5.9,2.53c1.36,1.69,2.05,4.27,2.08,7.74v2.29h-14.14v1.34c0,2.73,0.58,4.83,1.75,6.31
			c1.17,1.48,2.81,2.22,4.94,2.22c2.35,0,4.24-0.86,5.69-2.57l1.27,1.63C380.21,227.6,377.85,228.66,374.68,228.66z M374.27,206.28
			c-1.92,0-3.4,0.68-4.43,2.03c-1.03,1.36-1.6,3.34-1.7,5.95h11.67v-0.64C379.69,208.73,377.84,206.28,374.27,206.28z"/>
		
			<linearGradient id="SVGID_00000180332716922300962590000010813235943866371993_" gradientUnits="userSpaceOnUse" x1="392.1175" y1="229.1405" x2="392.1175" y2="199.1706">
			<stop  offset="0" style="stop-color:#222A5C"/>
			<stop  offset="1" style="stop-color:#3F2544"/>
		</linearGradient>
		<path style="fill:url(#SVGID_00000180332716922300962590000010813235943866371993_);" d="M396.76,206.72
			c-0.59-0.1-1.1-0.15-1.54-0.15c-1.35,0-2.48,0.46-3.4,1.38c-0.92,0.92-1.57,2.21-1.95,3.85v16.42h-2.44v-23.79h2.4l0.04,3.56
			c1.16-2.67,2.98-4,5.45-4c0.64,0,1.14,0.1,1.47,0.29L396.76,206.72z"/>
		
			<linearGradient id="SVGID_00000139982120938264457400000008989957316317828261_" gradientUnits="userSpaceOnUse" x1="404.935" y1="229.1405" x2="404.935" y2="199.1706">
			<stop  offset="0" style="stop-color:#222A5C"/>
			<stop  offset="1" style="stop-color:#3F2544"/>
		</linearGradient>
		<path style="fill:url(#SVGID_00000139982120938264457400000008989957316317828261_);" d="M405.81,198.37v6.07h4.07v2.2h-4.07
			v15.81c0,1.31,0.19,2.28,0.58,2.91c0.39,0.64,1.04,0.96,1.95,0.96c0.4,0,0.98-0.07,1.76-0.22l0.07,2.2
			c-0.56,0.25-1.36,0.37-2.4,0.37c-2.86,0-4.32-1.96-4.4-5.89v-16.14h-3.67v-2.2h3.67v-6.07H405.81z"/>
		
			<linearGradient id="SVGID_00000057124838014026265870000006010220456344864640_" gradientUnits="userSpaceOnUse" x1="416.7303" y1="229.1405" x2="416.7303" y2="199.1706">
			<stop  offset="0" style="stop-color:#222A5C"/>
			<stop  offset="1" style="stop-color:#3F2544"/>
		</linearGradient>
		<path style="fill:url(#SVGID_00000057124838014026265870000006010220456344864640_);" d="M415.11,197.58
			c0-0.5,0.14-0.92,0.42-1.27c0.28-0.35,0.67-0.53,1.19-0.53c0.51,0,0.91,0.18,1.2,0.53c0.29,0.35,0.43,0.78,0.43,1.27
			c0,0.5-0.14,0.92-0.43,1.26c-0.29,0.34-0.69,0.52-1.2,0.52c-0.51,0-0.91-0.17-1.19-0.52C415.25,198.5,415.11,198.08,415.11,197.58
			z M417.93,228.23h-2.46v-23.79h2.46V228.23z"/>
		
			<linearGradient id="SVGID_00000103976303355061755450000008532578877467929525_" gradientUnits="userSpaceOnUse" x1="431.3621" y1="229.1405" x2="431.3621" y2="199.1706">
			<stop  offset="0" style="stop-color:#222A5C"/>
			<stop  offset="1" style="stop-color:#3F2544"/>
		</linearGradient>
		<path style="fill:url(#SVGID_00000103976303355061755450000008532578877467929525_);" d="M436.57,222.36
			c0-1.02-0.43-1.92-1.28-2.69c-0.85-0.77-2.29-1.61-4.32-2.52c-2.03-0.91-3.45-1.68-4.25-2.28c-0.81-0.61-1.4-1.27-1.78-1.99
			c-0.38-0.72-0.57-1.57-0.57-2.55c0-1.83,0.66-3.35,1.98-4.54c1.32-1.19,3.03-1.79,5.12-1.79c2.26,0,4.06,0.64,5.41,1.91
			c1.35,1.27,2.02,2.96,2.02,5.06h-2.44c0-1.35-0.46-2.47-1.39-3.35c-0.92-0.89-2.13-1.33-3.61-1.33c-1.44,0-2.58,0.37-3.42,1.1
			c-0.84,0.73-1.26,1.69-1.26,2.86c0,0.95,0.32,1.73,0.97,2.33c0.64,0.6,2.04,1.41,4.18,2.44c2.21,0.97,3.74,1.77,4.57,2.4
			c0.84,0.63,1.47,1.33,1.89,2.1c0.43,0.77,0.64,1.68,0.64,2.74c0,1.96-0.68,3.52-2.05,4.68c-1.36,1.16-3.16,1.74-5.39,1.74
			c-2.36,0-4.27-0.64-5.73-1.93c-1.46-1.29-2.19-2.95-2.19-4.99h2.46c0.07,1.47,0.57,2.62,1.48,3.43c0.92,0.81,2.24,1.21,3.97,1.21
			c1.5,0,2.7-0.37,3.61-1.1S436.57,223.58,436.57,222.36z"/>
		
			<linearGradient id="SVGID_00000039104369020354545900000007619598780381841843_" gradientUnits="userSpaceOnUse" x1="451.9071" y1="229.1405" x2="451.9071" y2="199.1706">
			<stop  offset="0" style="stop-color:#222A5C"/>
			<stop  offset="1" style="stop-color:#3F2544"/>
		</linearGradient>
		<path style="fill:url(#SVGID_00000039104369020354545900000007619598780381841843_);" d="M452.62,228.66
			c-2.8,0-4.99-0.92-6.57-2.75c-1.58-1.83-2.39-4.44-2.42-7.83v-2.9c0-3.49,0.76-6.23,2.29-8.21c1.52-1.99,3.62-2.98,6.29-2.98
			c2.58,0,4.55,0.84,5.9,2.53c1.36,1.69,2.05,4.27,2.08,7.74v2.29h-14.14v1.34c0,2.73,0.58,4.83,1.75,6.31
			c1.17,1.48,2.81,2.22,4.94,2.22c2.35,0,4.24-0.86,5.69-2.57l1.27,1.63C458.15,227.6,455.79,228.66,452.62,228.66z M452.2,206.28
			c-1.92,0-3.4,0.68-4.43,2.03c-1.03,1.36-1.6,3.34-1.7,5.95h11.67v-0.64C457.63,208.73,455.78,206.28,452.2,206.28z"/>
	</g>
</g>
<g>
	<path class="st22" d="M85.15,140.27c-1.42,2.02-3.12,3.83-5.1,5.45c-1.98,1.62-4.24,2.94-6.79,3.96c-2.54,1.02-5.37,1.67-8.47,1.93
		c-3.7-0.26-7.12-1.06-10.26-2.38c-3.14-1.32-5.85-3.15-8.13-5.5c-2.28-2.34-4.08-5.14-5.4-8.37c-1.32-3.24-1.98-6.67-1.98-10.31
		c0-4.1,0.63-7.78,1.88-11.05c1.25-3.27,3.02-6.09,5.3-8.47c2.28-2.38,4.99-4.23,8.13-5.55c3.14-1.32,6.62-2.12,10.46-2.04
		c3.93,0.08,8.88,0.97,12.39,2.78c0.12,0.06,0.23,0.13,0.34,0.19c0.88,0.55,1.73,1.14,2.53,1.79c1.98,1.62,3.68,3.43,5.1,5.45
		c1.42,2.01,2.53,3.91,3.32,5.7l27.25-7.53c-1.12-3.96-3.06-8.09-5.8-12.39c-2.74-4.3-6.31-8.21-10.7-11.74
		c-4.39-3.53-9.61-6.46-15.66-8.77c-6.04-2.31-12.93-3.47-20.66-3.47c-4.32,0-8.44,0.45-12.38,1.32c-3.06,0.61-6.03,1.49-8.88,2.65
		c-6.64,2.71-12.37,6.49-17.19,11.35c-4.82,4.86-8.61,10.54-11.35,17.04C10.37,108.83,9,115.88,9,123.47c0,0.25,0.01,0.49,0.02,0.74
		c0,0.25-0.02,0.49-0.02,0.74c0,7.6,1.37,14.65,4.11,21.16c2.74,6.51,6.52,12.19,11.35,17.04c4.82,4.86,10.55,8.64,17.19,11.35
		c2.85,1.16,5.81,2.03,8.88,2.65c3.94,0.87,8.06,1.32,12.38,1.32c7.73,0,14.62-1.16,20.66-3.47c6.04-2.31,11.26-5.23,15.66-8.77
		c4.39-3.53,7.96-7.45,10.7-11.74c2.74-4.29,4.67-8.42,5.8-12.39l-27.25-7.53C87.68,136.36,86.57,138.26,85.15,140.27z"/>
	<path class="st22" d="M125.93,124.27c0-7.46,1.35-14.47,4.06-21.01c2.71-6.54,6.47-12.25,11.3-17.14
		c4.82-4.89,10.57-8.75,17.24-11.59c6.67-2.84,14-4.26,22-4.26c7.99,0,15.34,1.42,22.05,4.26c6.7,2.84,12.47,6.71,17.29,11.59
		c4.82,4.89,8.57,10.6,11.25,17.14c2.67,6.54,4.01,13.54,4.01,21.01c0,7.47-1.31,14.48-3.91,21.06c-2.61,6.57-6.31,12.32-11.1,17.24
		c-4.79,4.92-10.54,8.8-17.24,11.64c-6.71,2.84-14.15,4.26-22.35,4.26c-8.26,0-15.74-1.42-22.45-4.26
		c-6.71-2.84-12.44-6.7-17.19-11.59c-4.76-4.89-8.44-10.62-11.05-17.19C127.23,138.85,125.93,131.8,125.93,124.27z M155.56,124.27
		c0,3.9,0.66,7.48,1.98,10.75c1.32,3.27,3.12,6.09,5.4,8.47c2.28,2.38,4.92,4.23,7.93,5.55c3.01,1.32,6.23,1.98,9.66,1.98
		c3.5,0,6.75-0.64,9.76-1.93c3-1.29,5.61-3.12,7.83-5.5c2.21-2.38,3.95-5.2,5.2-8.47c1.25-3.27,1.88-6.89,1.88-10.85
		c0-4.1-0.63-7.79-1.88-11.1c-1.26-3.3-2.99-6.11-5.2-8.42c-2.21-2.31-4.82-4.08-7.83-5.3c-3.01-1.22-6.26-1.8-9.76-1.73
		c-3.44-0.06-6.66,0.51-9.66,1.73c-3.01,1.22-5.65,2.99-7.93,5.3c-2.28,2.31-4.08,5.12-5.4,8.42
		C156.22,116.47,155.56,120.17,155.56,124.27z"/>
	<path class="st22" d="M415.48,131.1l0.3,3.07c0.73,2.97,1.97,5.58,3.72,7.83c1.75,2.25,3.82,4.13,6.19,5.65
		c2.38,1.52,5.02,2.66,7.93,3.42c2.91,0.76,5.85,1.14,8.82,1.14c2.97,0,5.8-0.18,8.47-0.54c2.68-0.36,5.27-0.86,7.78-1.49
		c2.51-0.63,4.95-1.35,7.33-2.18c2.38-0.83,4.79-1.7,7.23-2.63l10.9,20.31c-3.77,2.31-7.22,4.28-10.36,5.9
		c-3.14,1.62-6.29,2.96-9.46,4.01c-3.17,1.06-6.54,1.83-10.11,2.33c-3.57,0.5-7.73,0.74-12.49,0.74c-8.92,0-16.85-1.47-23.78-4.41
		c-6.94-2.94-12.77-6.92-17.49-11.94c-4.72-5.02-8.32-10.9-10.8-17.64c-2.48-6.74-3.72-13.87-3.72-21.4c0-7.53,1.3-14.6,3.91-21.21
		c2.61-6.61,6.29-12.37,11.05-17.29c4.76-4.92,10.44-8.8,17.04-11.64c6.61-2.84,13.94-4.26,22-4.26c8.06,0,15.21,1.34,21.45,4.01
		c6.24,2.67,11.51,6.38,15.81,11.1c4.29,4.72,7.6,10.27,9.91,16.65c2.31,6.38,3.57,13.23,3.76,20.56c0.2,1.65,0.31,3.29,0.35,4.91
		c0.03,1.62-0.02,3.29-0.15,5H415.48z M439.16,93.65c-3.7,0-6.85,0.45-9.46,1.34c-2.61,0.89-4.81,2.11-6.59,3.67
		c-1.78,1.55-3.2,3.32-4.26,5.3c-1.06,1.98-1.88,4.06-2.48,6.24h42.91c-0.46-2.25-1.12-4.36-1.98-6.34
		c-0.86-1.98-2.05-3.73-3.57-5.25c-1.52-1.52-3.45-2.72-5.8-3.62C445.59,94.09,442.67,93.65,439.16,93.65z"/>
	<g>
		<path class="st22" d="M355.73,148.84V68.42h-15.01V52.87V37.33h-15.55V21.8h-14.33v27.15h14.37v26.06
			c-3.44-1.52-7.04-2.69-10.8-3.52c-3.76-0.82-7.8-1.24-12.09-1.24c-7.8,0-14.95,1.39-21.45,4.16c-6.51,2.77-12.09,6.57-16.75,11.4
			c-4.66,4.82-8.29,10.49-10.9,16.99c-2.61,6.51-3.91,13.53-3.91,21.06c0,7.53,1.32,14.58,3.96,21.16
			c2.64,6.57,6.32,12.3,11.05,17.19c4.72,4.89,10.37,8.74,16.95,11.54c6.57,2.81,13.79,4.21,21.65,4.21c3.83,0,7.61-0.53,11.35-1.59
			c3.73-1.06,7.38-2.51,10.95-4.36v3.96h50.54v-27.15H355.73z M325.21,138.93c-2.31,3.44-5.24,6.21-8.77,8.32
			c-3.54,2.12-7.48,3.24-11.84,3.37c-3.44-0.13-6.66-0.79-9.66-1.98c-3.01-1.19-5.65-2.92-7.93-5.2c-2.28-2.28-4.08-5.05-5.4-8.32
			c-1.32-3.27-1.98-6.92-1.98-10.95c0-4.1,0.66-7.76,1.98-11c1.32-3.24,3.12-6.01,5.4-8.32c2.28-2.31,4.92-4.1,7.93-5.35
			c3.01-1.25,6.23-1.85,9.66-1.78c4.09-0.06,7.98,0.88,11.64,2.82c3.67,1.95,6.65,4.67,8.97,8.18V138.93z"/>
		<rect x="351.84" y="10.73" class="st23" width="15.27" height="15.27"/>
		<rect x="329.9" y="18.37" class="st24" width="15.27" height="15.27"/>
		<rect x="350.14" y="30.05" class="st25" width="15.27" height="15.27"/>
		<rect x="344.21" y="49.85" class="st22" width="15.27" height="15.27"/>
	</g>
</g>
</svg>
